<svg xmlns="http://www.w3.org/2000/svg" viewBox="0 0 24 24" width="24" height="24"><path fill="white" d="M12 0C5.373 0 0 5.373 0 12c0 5.302 3.438 9.798 8.207 11.385.6.11.793-.261.793-.577 0-.284-.012-1.229-.019-2.228-3.338.724-4.042-1.607-4.042-1.607-.546-1.386-1.332-1.756-1.332-1.756-1.089-.744.083-.729.083-.729 1.205.084 1.838 1.238 1.838 1.238 1.07 1.832 2.807 1.303 3.496.996.108-.771.417-1.303.759-1.603-2.657-.302-5.466-1.317-5.466-5.858 0-1.294.462-2.347 1.225-3.174-.123-.302-.531-1.502.116-3.134 0 0 1.005-.318 3.3 1.213a11.388 11.388 0 0 1 3-.402c1.018.006 2.045.137 3 .402 2.292-1.53 3.296-1.213 3.296-1.213.649 1.632.241 2.832.118 3.134.767.827 1.221 1.88 1.221 3.174 0 4.555-2.813 5.553-5.475 5.848.429.367.811 1.093.811 2.207 0 1.595-.015 2.877-.015 3.272 0 .318.19.693.799.574C20.565 21.794 24 17.298 24 12c0-6.627-5.373-12-12-12"/></svg>
